<?xml version="1.0" encoding="UTF-8"?>
<!DOCTYPE svg PUBLIC "-//W3C//DTD SVG 1.1//EN" "http://www.w3.org/Graphics/SVG/1.1/DTD/svg11.dtd">
<!-- Creator: CorelDRAW -->
<svg xmlns="http://www.w3.org/2000/svg" xml:space="preserve" width="60.8309mm" height="22.2483mm" version="1.1" style="shape-rendering:geometricPrecision; text-rendering:geometricPrecision; image-rendering:optimizeQuality; fill-rule:evenodd; clip-rule:evenodd"
viewBox="0 0 8318.42 3042.38"
 xmlns:xlink="http://www.w3.org/1999/xlink"
 xmlns:xodm="http://www.corel.com/coreldraw/odm/2003">
 <defs>
  <style type="text/css">
   <![CDATA[
    .fil1 {fill:white}
    .fil2 {fill:#343A40;fill-rule:nonzero}
    .fil0 {fill:url(#id0)}
   ]]>
  </style>
  <linearGradient id="id0" gradientUnits="userSpaceOnUse" x1="982.88" y1="98.79" x2="2061.39" y2="2943.59">
   <stop offset="0" style="stop-opacity:1; stop-color:#468EF9"/>
   <stop offset="1" style="stop-opacity:1; stop-color:#0C66EE"/>
  </linearGradient>
 </defs>
 <g id="Camada_x0020_1">
  <metadata id="CorelCorpID_0Corel-Layer"/>
  <g id="_2449772743248">
   <rect class="fil0" x="0.95" y="0" width="3042.38" height="3042.38" rx="147.46" ry="147.46"/>
   <g>
    <path class="fil1" d="M-0 740.72c112.82,187.07 218.7,391.49 325.25,583.57 198.53,357.84 334.45,786.1 745.42,796.59 186.97,4.77 363.6,-85.64 535.76,-204.3 -160.44,-0.71 -289.1,41.86 -428.32,-209.44 -106.47,-192.18 -213.06,-384.31 -319.66,-576.44 -106.63,-192.21 -183.49,-343.21 -362.95,-416.07 -132.81,-53.91 -305.86,-72.78 -495.5,26.09z"/>
    <path class="fil1" d="M1514.41 1166.94c195.36,0 353.72,158.38 353.72,353.74 0,195.34 -158.37,353.72 -353.72,353.72 -195.36,0 -353.72,-158.38 -353.72,-353.72 0,-195.36 158.37,-353.74 353.72,-353.74zm0 43.7c171.22,0 310.03,138.8 310.03,310.03 0,171.22 -138.81,310.02 -310.03,310.02 -171.22,0 -310.03,-138.8 -310.03,-310.02 0,-171.23 138.81,-310.03 310.03,-310.03zm0 -21.44c183.06,0 331.46,148.41 331.46,331.47 0,183.05 -148.4,331.46 -331.46,331.46 -183.05,0 -331.46,-148.41 -331.46,-331.46 0,-183.06 148.41,-331.47 331.46,-331.47z"/>
    <path class="fil1" d="M3044.31 2301.66c-112.82,-187.06 -218.7,-391.49 -325.25,-583.55 -198.52,-357.84 -334.45,-786.1 -745.42,-796.59 -186.97,-4.77 -363.58,85.64 -535.76,204.3 160.44,0.7 289.11,-41.87 428.33,209.44 106.47,192.18 213.05,384.31 319.65,576.44 106.63,192.21 183.49,343.19 362.95,416.05 132.82,53.92 305.87,72.78 495.5,-26.09z"/>
   </g>
  </g>
  <path class="fil2" d="M3564.92 310.76c99.46,0 249.02,0 448.97,0 0,251.11 0,628.71 0,1133.03 -68.76,0 -171.08,0 -307.53,0 0,-183.42 0,-459.2 0,-827.07 0,-73.99 -12.33,-136.98 -36.74,-189.19 -24.66,-52.22 -59.55,-91.32 -104.69,-116.77zm1420.47 0c67.7,0 169.51,0 305.96,0 0,251.11 0,628.71 0,1133.03 -35.95,0 -90.79,0 -164.52,0 -48.29,0 -93.15,-11.28 -135.41,-33.84 -41.98,-23.62 -76.35,-55.37 -102.86,-95.26 -64.54,-100.5 -161.89,-251.11 -292.04,-452.11 0,129.1 0,323.02 0,581.21 -68.76,0 -171.34,0 -307.53,0 0,-252.16 0,-629.75 0,-1133.03 65.6,0 164.52,0 296.51,0 88.16,137.24 221.46,343.22 399.89,617.94 0,-102.6 0,-205.46 0,-309.1 0,-103.38 0,-206.5 0,-308.84zm513.36 235.11c-19.42,-52.22 -48.29,-130.68 -86.07,-235.11 71.64,0 180.27,0 325.89,0 55.37,153.77 139.34,384.15 252.17,691.68 55.36,-153.77 138.8,-384.41 250.59,-691.68 72.68,0 181.83,0 327.47,0 -78.98,217.26 -197.33,543.16 -355.28,977.68 -17.33,47.23 -46.45,84.5 -87.64,112.31 -39.89,28.61 -84.5,43.03 -133.56,43.03 -38.06,0 -93.94,0 -167.68,0 -54.32,-149.56 -108.63,-299.39 -162.95,-448.97 -54.32,-149.56 -108.63,-299.39 -162.95,-448.95zm1271.17 -235.11c68.48,0 171.08,0 307.53,0 0,251.11 0,628.71 0,1133.03 -68.76,0 -171.34,0 -307.53,0 0,-252.16 0,-629.75 0,-1133.03zm1240.18 516.4c53.28,29.92 92.89,69.28 118.34,118.6 25.72,46.97 38.58,100.24 38.58,159.8 0,1.05 0,2.63 0,4.46 0,110.74 -43.55,197.84 -130.68,261.61 -87.11,63.51 -207.02,95.26 -359.74,95.26 -90.27,0 -171.6,-11.3 -244.56,-33.86 -72.68,-23.62 -131.19,-56.94 -175.28,-99.98 31.75,-48.27 80.56,-120.43 146.15,-216.73 31.75,28.59 75.31,53.26 130.68,73.73 55.37,20.46 103.91,30.7 146.15,30.7 58.25,0 103.91,-10.24 136.71,-30.7 33.86,-20.47 50.65,-45.14 50.65,-73.73 0,-18.37 -7.62,-34.9 -23.1,-49.34 -16.27,-13.11 -37.78,-23.34 -64.54,-30.7 -10.24,-2.89 -40.41,-10.75 -90.53,-23.08 -49.34,-13.13 -77.93,-20.99 -86.07,-23.1 -23.62,-6.03 -49.34,-12.59 -76.88,-19.94 -27.81,-8.14 -55.37,-18.37 -83.18,-30.7 -51.17,-23.62 -96.83,-58.51 -136.71,-104.43 -40.15,-47.23 -60.09,-113.88 -60.09,-199.95 0,-86.07 35.42,-161.89 106.01,-227.49 69.8,-64.56 167.66,-96.83 293.88,-96.83 97.35,0 244.28,0 441.09,0 0,60.35 0,152.19 0,275 -72.69,0 -145.89,0 -219.89,0 -73.73,0 -146.95,0 -219.89,0 -40.94,1.04 -69.54,5.24 -86.07,12.32 -15.22,7.36 -23.36,19.95 -24.41,38.58 -2.09,23.62 10.24,39.89 36.74,49.06 26.76,9.19 53.26,17.59 80.02,24.67 0,0 0,0 0,0 1.05,0 1.57,0 1.57,0 -1.04,0 -1.57,0 -1.57,0 0,0 0,0 0,0 6.04,1.05 30.7,6.56 73.73,17.05 43.03,11.02 89.21,24.41 138.29,39.89 26.76,9.19 53,18.37 78.45,27.55 25.71,10.23 47.75,20.99 66.12,32.27zm-3584.77 771.46c-23.62,62.45 -57.99,156.66 -103.12,282.86 -58.51,0 -146.15,0 -262.92,0 0,146.41 0,366.84 0,660.98 0,52.22 -18.37,96.83 -55.37,133.82 -36.73,37 -81.34,55.37 -133.82,55.37 -25.45,0 -65.08,0 -118.34,0 0,-188.67 0,-472.05 0,-850.17 -58.25,0 -145.89,0 -262.92,0 -22.56,-62.71 -56.94,-156.9 -102.86,-282.86 173.19,0 346.37,0 519.55,0 173.18,0 346.35,0 519.8,0zm1144.95 401.2c0,88.17 -15.75,162.95 -47.49,224.35 -32.81,61.67 -79.5,107.33 -140.12,136.98 42.24,82.91 104.69,206.5 187.62,370.5 -75.84,0 -190.5,0 -344.27,0 -36.99,-73.73 -92.88,-183.94 -167.66,-330.63 -27.55,0 -69.28,0 -124.37,0 0,73.73 0,183.95 0,330.63 -68.76,0 -171.34,0 -307.53,0 0,-252.16 0,-629.75 0,-1133.03 129.1,0 322.22,0 579.63,0 112.57,0 201.78,35.16 267.38,106.01 64.56,71.64 96.83,170.03 96.83,295.19zm-448.97 152.2c44.09,0 78.98,-13.39 104.69,-39.89 25.46,-26.76 38.32,-63.76 38.32,-110.74 0,-48.27 -12.85,-86.05 -38.32,-113.87 -25.71,-26.5 -60.61,-39.89 -104.69,-39.89 -41.98,0 -104.43,0 -187.34,0 0,67.7 0,168.98 0,304.38 30.7,0 61.92,0 93.67,0 30.7,0 61.92,0 93.67,0zm687.07 -553.4c68.48,0 171.08,0 307.53,0 0,251.11 0,628.71 0,1133.03 -68.76,0 -171.34,0 -307.53,0 0,-252.16 0,-629.75 0,-1133.03zm1323.37 554.97c56.42,15.22 100.5,46.18 132.25,92.1 30.7,46.18 45.92,104.17 45.92,173.71 0,97.61 -28.59,173.97 -86.07,229.32 -58.24,55.37 -133.29,82.92 -224.35,82.92 -135.39,0 -338.75,0 -610.33,0 0,-252.16 0,-629.75 0,-1133.03 129.1,0 322.22,0 579.63,0 90.01,0 164,27.02 221.2,81.34 56.42,53.28 85.28,127.53 86.07,223.05 0,62.45 -12.59,115.18 -38.32,158.22 -24.66,41.99 -60.09,72.95 -106.01,92.37zm-435.05 -319.86c0,45.13 0,112.31 0,201.52 46.96,0 117.81,0 212.01,0 28.61,0 51.69,-8.93 69.28,-26.24 16.26,-17.33 24.4,-41.98 24.4,-73.73 0,-31.75 -8.14,-56.42 -24.4,-73.73 -17.59,-18.62 -40.67,-27.81 -69.28,-27.81 -35.95,0 -71.11,0 -106.01,0 -35.95,0 -71.37,0 -106.01,0zm212.01 661.24c32.81,0 59.03,-9.71 78.45,-29.39 18.38,-20.47 28.09,-47.49 29.13,-81.35 0,-34.9 -9.71,-62.71 -29.13,-83.17 -19.42,-19.42 -45.65,-29.13 -78.45,-29.13 -47.23,0 -117.82,0 -212.01,0 0,49.06 0,123.59 0,223.03 34.64,0 70.06,0 106.01,0 34.9,0 70.06,0 106.01,0zm945.53 -207.55c0,43.03 0,107.06 0,192.07 102.33,0 257.14,0 464.17,0 0,56.41 0,140.38 0,252.16 -129.1,0 -323.27,0 -582.79,0 -52.21,0 -96.82,-18.37 -133.55,-55.37 -37,-36.99 -55.37,-81.6 -55.37,-133.82 0,-210.18 0,-524.79 0,-943.84 165.83,0 415.11,0 747.03,0 0,59.31 0,148.52 0,267.38 -97.35,0 -243.76,0 -439.5,0 0,40.94 0,103.12 0,186.04 71.63,0 180.26,0 325.89,0 -19.68,52.21 -48.8,130.68 -87.64,235.37 -40.15,0 -79.5,0 -118.34,0 -40.15,0 -80.04,0 -119.91,0z"/>
 </g>
</svg>
